P2
2 2
255
0 10 49 50 